<svg width="28" height="28" viewBox="0 0 28 28" fill="none" xmlns="http://www.w3.org/2000/svg">
<path d="M24.4999 18.6667H8.16658C7.85717 18.6667 7.56042 18.5438 7.34163 18.325C7.12284 18.1062 6.99992 17.8094 6.99992 17.5C6.99992 17.1906 7.12284 16.8938 7.34163 16.675C7.56042 16.4563 7.85717 16.3333 8.16658 16.3333H20.3466C21.1267 16.3334 21.8844 16.0728 22.4995 15.593C23.1146 15.1132 23.5518 14.4416 23.7416 13.685L25.6666 6.11333C25.7103 5.94114 25.7141 5.76125 25.6777 5.58737C25.6413 5.41349 25.5657 5.25021 25.4566 5.11C25.3431 4.96619 25.1974 4.85111 25.0312 4.77409C24.865 4.69707 24.683 4.66027 24.4999 4.66667H7.88659C7.64589 3.98586 7.2005 3.39617 6.61149 2.97843C6.02249 2.56069 5.31869 2.33536 4.59659 2.33333H3.49992C3.1905 2.33333 2.89375 2.45625 2.67496 2.67504C2.45617 2.89384 2.33325 3.19058 2.33325 3.5C2.33325 3.80942 2.45617 4.10617 2.67496 4.32496C2.89375 4.54375 3.1905 4.66667 3.49992 4.66667H4.59659C4.86309 4.6589 5.12422 4.74266 5.33649 4.90398C5.54876 5.06531 5.69938 5.29448 5.76325 5.55333L5.83325 6.11333L7.85158 14C6.92333 14.0418 6.04968 14.4506 5.42284 15.1365C4.796 15.8224 4.46731 16.7292 4.50909 17.6575C4.55086 18.5858 4.95967 19.4594 5.64558 20.0862C6.3315 20.7131 7.23833 21.0418 8.16658 21H8.37659C8.18471 21.5287 8.12305 22.0958 8.19684 22.6533C8.27062 23.2108 8.47767 23.7424 8.80046 24.2029C9.12324 24.6635 9.55225 25.0394 10.0512 25.299C10.5501 25.5586 11.1042 25.6941 11.6666 25.6941C12.229 25.6941 12.7831 25.5586 13.282 25.299C13.7809 25.0394 14.2099 24.6635 14.5327 24.2029C14.8555 23.7424 15.0625 23.2108 15.1363 22.6533C15.2101 22.0958 15.1485 21.5287 14.9566 21H17.7099C17.518 21.5287 17.4564 22.0958 17.5302 22.6533C17.604 23.2108 17.811 23.7424 18.1338 24.2029C18.4566 24.6635 18.8856 25.0394 19.3845 25.299C19.8834 25.5586 20.4375 25.6941 20.9999 25.6941C21.5623 25.6941 22.1164 25.5586 22.6153 25.299C23.1143 25.0394 23.5433 24.6635 23.866 24.2029C24.1888 23.7424 24.3959 23.2108 24.4697 22.6533C24.5434 22.0958 24.4818 21.5287 24.2899 21H24.4999C24.8093 21 25.1061 20.8771 25.3249 20.6583C25.5437 20.4395 25.6666 20.1428 25.6666 19.8333C25.6666 19.5239 25.5437 19.2272 25.3249 19.0084C25.1061 18.7896 24.8093 18.6667 24.4999 18.6667ZM23.0066 7L21.4783 13.1133C21.4144 13.3722 21.2638 13.6014 21.0515 13.7627C20.8392 13.924 20.5781 14.0078 20.3116 14H10.2433L8.49325 7H23.0066ZM11.6666 23.3333C11.4358 23.3333 11.2103 23.2649 11.0184 23.1367C10.8266 23.0085 10.677 22.8263 10.5887 22.6131C10.5004 22.4 10.4773 22.1654 10.5223 21.9391C10.5674 21.7127 10.6785 21.5049 10.8416 21.3417C11.0048 21.1785 11.2127 21.0674 11.439 21.0224C11.6653 20.9774 11.8999 21.0005 12.113 21.0888C12.3262 21.1771 12.5084 21.3266 12.6366 21.5185C12.7648 21.7104 12.8333 21.9359 12.8333 22.1667C12.8333 22.4761 12.7103 22.7728 12.4915 22.9916C12.2727 23.2104 11.976 23.3333 11.6666 23.3333ZM20.9999 23.3333C20.7692 23.3333 20.5436 23.2649 20.3518 23.1367C20.1599 23.0085 20.0104 22.8263 19.9221 22.6131C19.8338 22.4 19.8107 22.1654 19.8557 21.9391C19.9007 21.7127 20.0118 21.5049 20.175 21.3417C20.3381 21.1785 20.546 21.0674 20.7723 21.0224C20.9986 20.9774 21.2332 21.0005 21.4464 21.0888C21.6596 21.1771 21.8418 21.3266 21.97 21.5185C22.0982 21.7104 22.1666 21.9359 22.1666 22.1667C22.1666 22.4761 22.0437 22.7728 21.8249 22.9916C21.6061 23.2104 21.3093 23.3333 20.9999 23.3333Z" fill="#419DB4"/>
</svg>
