<svg width="24" height="24" viewBox="0 0 24 24" fill="none" xmlns="http://www.w3.org/2000/svg">
<g clip-path="url(#clip0_20_1289)">
<path fill-rule="evenodd" clip-rule="evenodd" d="M16.8433 6.54784C15.6043 5.36614 13.9508 4.72238 12.24 4.74884C9.10936 4.74884 6.45055 6.86089 5.50253 9.70489C4.99987 11.1952 4.99987 12.8091 5.50253 14.2995H5.50693C6.45934 17.1391 9.11376 19.2512 12.2444 19.2512C13.8604 19.2512 15.2478 18.8378 16.323 18.1077V18.1047C17.5885 17.267 18.4528 15.9486 18.7217 14.4582H12.24V9.83725H23.5588C23.6999 10.6397 23.766 11.4599 23.766 12.2756C23.766 15.9255 22.4616 19.0112 20.1921 21.1012L20.1944 21.1031C18.2058 22.9374 15.4764 24 12.24 24C7.70278 24 3.55359 21.4426 1.51648 17.3904C-0.18551 13.9996 -0.185506 10.0048 1.51649 6.61401C3.5536 2.55743 7.70277 -1.53086e-05 12.24 -1.53086e-05C15.2207 -0.03529 18.1 1.08468 20.2694 3.12179L16.8433 6.54784Z" fill="#222222"/>
</g>
<defs>
<clipPath id="clip0_20_1289">
<rect width="24" height="24" fill="white"/>
</clipPath>
</defs>
</svg>
