<svg width="131" height="32" viewBox="0 0 131 32" fill="none" xmlns="http://www.w3.org/2000/svg">
<path d="M5.592 20.832H10.968V24H1.488V7.152H5.592V20.832ZM26.1495 10.608V24H22.0455V22.176C21.6295 22.768 21.0615 23.248 20.3415 23.616C19.6375 23.968 18.8535 24.144 17.9895 24.144C16.9655 24.144 16.0615 23.92 15.2775 23.472C14.4935 23.008 13.8855 22.344 13.4535 21.48C13.0215 20.616 12.8055 19.6 12.8055 18.432V10.608H16.8855V17.88C16.8855 18.776 17.1175 19.472 17.5815 19.968C18.0455 20.464 18.6695 20.712 19.4535 20.712C20.2535 20.712 20.8855 20.464 21.3495 19.968C21.8135 19.472 22.0455 18.776 22.0455 17.88V10.608H26.1495ZM46.1854 10.464C47.8494 10.464 49.1694 10.968 50.1454 11.976C51.1374 12.984 51.6334 14.384 51.6334 16.176V24H47.5534V16.728C47.5534 15.864 47.3214 15.2 46.8574 14.736C46.4094 14.256 45.7854 14.016 44.9854 14.016C44.1854 14.016 43.5534 14.256 43.0894 14.736C42.6414 15.2 42.4174 15.864 42.4174 16.728V24H38.3374V16.728C38.3374 15.864 38.1054 15.2 37.6414 14.736C37.1934 14.256 36.5694 14.016 35.7694 14.016C34.9694 14.016 34.3374 14.256 33.8734 14.736C33.4254 15.2 33.2014 15.864 33.2014 16.728V24H29.0974V10.608H33.2014V12.288C33.6174 11.728 34.1614 11.288 34.8334 10.968C35.5054 10.632 36.2654 10.464 37.1134 10.464C38.1214 10.464 39.0174 10.68 39.8014 11.112C40.6014 11.544 41.2254 12.16 41.6734 12.96C42.1374 12.224 42.7694 11.624 43.5694 11.16C44.3694 10.696 45.2414 10.464 46.1854 10.464ZM56.5676 9.216C55.8476 9.216 55.2556 9.008 54.7916 8.592C54.3436 8.16 54.1196 7.632 54.1196 7.008C54.1196 6.368 54.3436 5.84 54.7916 5.424C55.2556 4.992 55.8476 4.776 56.5676 4.776C57.2716 4.776 57.8476 4.992 58.2956 5.424C58.7596 5.84 58.9916 6.368 58.9916 7.008C58.9916 7.632 58.7596 8.16 58.2956 8.592C57.8476 9.008 57.2716 9.216 56.5676 9.216ZM58.6076 10.608V24H54.5036V10.608H58.6076ZM76.1738 7.152V24H72.0698V17.064H65.6858V24H61.5818V7.152H65.6858V13.752H72.0698V7.152H76.1738ZM78.3204 17.28C78.3204 15.904 78.5764 14.696 79.0884 13.656C79.6164 12.616 80.3284 11.816 81.2244 11.256C82.1204 10.696 83.1204 10.416 84.2244 10.416C85.1684 10.416 85.9924 10.608 86.6964 10.992C87.4164 11.376 87.9684 11.88 88.3524 12.504V10.608H92.4564V24H88.3524V22.104C87.9524 22.728 87.3924 23.232 86.6724 23.616C85.9684 24 85.1444 24.192 84.2004 24.192C83.1124 24.192 82.1204 23.912 81.2244 23.352C80.3284 22.776 79.6164 21.968 79.0884 20.928C78.5764 19.872 78.3204 18.656 78.3204 17.28ZM88.3524 17.304C88.3524 16.28 88.0644 15.472 87.4884 14.88C86.9284 14.288 86.2404 13.992 85.4244 13.992C84.6084 13.992 83.9124 14.288 83.3364 14.88C82.7764 15.456 82.4964 16.256 82.4964 17.28C82.4964 18.304 82.7764 19.12 83.3364 19.728C83.9124 20.32 84.6084 20.616 85.4244 20.616C86.2404 20.616 86.9284 20.32 87.4884 19.728C88.0644 19.136 88.3524 18.328 88.3524 17.304ZM108.65 10.608V24H104.546V22.176C104.13 22.768 103.562 23.248 102.842 23.616C102.138 23.968 101.354 24.144 100.49 24.144C99.4655 24.144 98.5615 23.92 97.7775 23.472C96.9935 23.008 96.3855 22.344 95.9535 21.48C95.5215 20.616 95.3055 19.6 95.3055 18.432V10.608H99.3855V17.88C99.3855 18.776 99.6175 19.472 100.082 19.968C100.546 20.464 101.17 20.712 101.954 20.712C102.754 20.712 103.386 20.464 103.85 19.968C104.314 19.472 104.546 18.776 104.546 17.88V10.608H108.65ZM117.045 24.192C115.877 24.192 114.837 23.992 113.925 23.592C113.013 23.192 112.293 22.648 111.765 21.96C111.237 21.256 110.941 20.472 110.877 19.608H114.933C114.981 20.072 115.197 20.448 115.581 20.736C115.965 21.024 116.437 21.168 116.997 21.168C117.509 21.168 117.901 21.072 118.173 20.88C118.461 20.672 118.605 20.408 118.605 20.088C118.605 19.704 118.405 19.424 118.005 19.248C117.605 19.056 116.957 18.848 116.061 18.624C115.101 18.4 114.301 18.168 113.661 17.928C113.021 17.672 112.469 17.28 112.005 16.752C111.541 16.208 111.309 15.48 111.309 14.568C111.309 13.8 111.517 13.104 111.933 12.48C112.365 11.84 112.989 11.336 113.805 10.968C114.637 10.6 115.621 10.416 116.757 10.416C118.437 10.416 119.757 10.832 120.717 11.664C121.693 12.496 122.253 13.6 122.397 14.976H118.605C118.541 14.512 118.333 14.144 117.981 13.872C117.645 13.6 117.197 13.464 116.637 13.464C116.157 13.464 115.789 13.56 115.533 13.752C115.277 13.928 115.149 14.176 115.149 14.496C115.149 14.88 115.349 15.168 115.749 15.36C116.165 15.552 116.805 15.744 117.669 15.936C118.661 16.192 119.469 16.448 120.093 16.704C120.717 16.944 121.261 17.344 121.725 17.904C122.205 18.448 122.453 19.184 122.469 20.112C122.469 20.896 122.245 21.6 121.797 22.224C121.365 22.832 120.733 23.312 119.901 23.664C119.085 24.016 118.133 24.192 117.045 24.192Z" fill="#2A2A2A"/>
<path d="M126.9 24.192C126.18 24.192 125.588 23.984 125.124 23.568C124.676 23.136 124.452 22.608 124.452 21.984C124.452 21.344 124.676 20.808 125.124 20.376C125.588 19.944 126.18 19.728 126.9 19.728C127.604 19.728 128.18 19.944 128.628 20.376C129.092 20.808 129.324 21.344 129.324 21.984C129.324 22.608 129.092 23.136 128.628 23.568C128.18 23.984 127.604 24.192 126.9 24.192Z" fill="#419DB4"/>
</svg>
