<svg width="32" height="32" viewBox="0 0 32 32" fill="none" xmlns="http://www.w3.org/2000/svg">
<path d="M20.9467 16.9468C22.2539 15.9184 23.208 14.5081 23.6763 12.9121C24.1446 11.3161 24.1039 9.61385 23.5597 8.04212C23.0155 6.47039 21.995 5.10735 20.6401 4.14264C19.2852 3.17792 17.6633 2.6595 16 2.6595C14.3367 2.6595 12.7148 3.17792 11.3599 4.14264C10.005 5.10735 8.98446 6.47039 8.44028 8.04212C7.8961 9.61385 7.85535 11.3161 8.32368 12.9121C8.79201 14.5081 9.74614 15.9184 11.0533 16.9468C8.81343 17.8442 6.85905 19.3326 5.39852 21.2534C3.93799 23.1741 3.02608 25.4552 2.76 27.8535C2.74074 28.0286 2.75615 28.2058 2.80536 28.3749C2.85457 28.544 2.93662 28.7018 3.04681 28.8393C3.26935 29.1168 3.59304 29.2946 3.94666 29.3335C4.30028 29.3724 4.65488 29.2692 4.93243 29.0467C5.20998 28.8241 5.38776 28.5004 5.42666 28.1468C5.71944 25.5404 6.96224 23.1332 8.91762 21.3852C10.873 19.6372 13.4039 18.6709 16.0267 18.6709C18.6495 18.6709 21.1803 19.6372 23.1357 21.3852C25.0911 23.1332 26.3339 25.5404 26.6267 28.1468C26.6629 28.4745 26.8192 28.777 27.0655 28.9962C27.3117 29.2153 27.6304 29.3355 27.96 29.3335H28.1067C28.4562 29.2933 28.7756 29.1166 28.9954 28.8418C29.2152 28.5671 29.3175 28.2166 29.28 27.8668C29.0127 25.4618 28.0958 23.1748 26.6278 21.2511C25.1598 19.3274 23.1959 17.8395 20.9467 16.9468ZM16 16.0002C14.9452 16.0002 13.914 15.6874 13.037 15.1013C12.1599 14.5153 11.4763 13.6823 11.0726 12.7078C10.669 11.7333 10.5634 10.6609 10.7691 9.62635C10.9749 8.59178 11.4829 7.64147 12.2288 6.89559C12.9746 6.14971 13.9249 5.64176 14.9595 5.43597C15.9941 5.23019 17.0664 5.3358 18.041 5.73947C19.0155 6.14314 19.8485 6.82672 20.4345 7.70379C21.0205 8.58085 21.3333 9.61199 21.3333 10.6668C21.3333 12.0813 20.7714 13.4379 19.7712 14.4381C18.771 15.4383 17.4145 16.0002 16 16.0002Z" fill="black"/>
</svg>
